<?xml version="1.0" standalone="no"?>
<!DOCTYPE svg PUBLIC "-//W3C//DTD SVG 20010904//EN"
 "http://www.w3.org/TR/2001/REC-SVG-20010904/DTD/svg10.dtd">
<svg version="1.0" xmlns="http://www.w3.org/2000/svg"
 width="1000.000000pt" height="1000.000000pt" viewBox="0 0 1000.000000 1000.000000"
 preserveAspectRatio="xMidYMid meet">
<metadata>
Created by potrace 1.11, written by Peter Selinger 2001-2013
</metadata>
<g transform="translate(0.000000,1000.000000) scale(0.100000,-0.100000)"
fill="#000000" stroke="none">
<path d="M4738 9995 c-1 -1 -52 -6 -113 -9 -60 -4 -119 -9 -130 -11 -11 -2
-48 -7 -82 -10 -34 -3 -68 -7 -75 -10 -7 -2 -35 -6 -63 -9 -61 -6 -294 -48
-333 -60 -9 -3 -29 -7 -45 -10 -15 -3 -35 -7 -45 -10 -9 -3 -28 -7 -42 -10
-47 -9 -65 -14 -155 -41 -49 -14 -94 -28 -100 -29 -101 -27 -386 -128 -430
-153 -16 -9 -32 -17 -35 -16 -8 1 -30 -7 -90 -34 -30 -14 -57 -26 -60 -26 -3
-1 -59 -28 -125 -61 -66 -33 -123 -59 -127 -58 -5 1 -8 -2 -8 -8 0 -5 -5 -10
-10 -10 -9 0 -192 -102 -275 -153 -45 -27 -301 -197 -320 -211 -11 -9 -51 -39
-90 -68 -170 -126 -341 -276 -519 -454 -170 -170 -276 -287 -276 -306 0 -4 -7
-8 -15 -8 -8 0 -15 -5 -15 -11 0 -6 -6 -16 -13 -23 -14 -15 -48 -58 -109 -136
-24 -30 -46 -56 -50 -58 -5 -2 -8 -9 -8 -16 0 -7 -11 -23 -25 -36 -14 -13 -25
-27 -25 -31 0 -4 -34 -56 -76 -116 -42 -59 -81 -119 -87 -133 -7 -14 -14 -27
-18 -30 -10 -8 -109 -180 -109 -189 0 -5 -4 -11 -8 -13 -16 -6 -238 -465 -246
-508 -1 -3 -5 -11 -10 -18 -8 -13 -115 -297 -119 -317 -2 -5 -6 -16 -10 -22
-5 -7 -6 -13 -3 -13 3 0 -1 -17 -8 -37 -35 -91 -126 -446 -141 -549 -4 -21 -8
-47 -11 -56 -3 -9 -6 -25 -8 -35 -7 -41 -19 -119 -21 -138 -1 -11 -5 -36 -8
-55 -3 -19 -9 -62 -12 -95 -4 -33 -8 -71 -11 -85 -25 -156 -25 -844 0 -1000 2
-14 7 -52 11 -85 7 -65 14 -115 21 -155 2 -14 6 -45 10 -70 3 -25 8 -53 10
-62 3 -10 7 -30 10 -45 13 -81 30 -154 70 -313 25 -96 47 -182 49 -190 16 -64
129 -385 160 -455 7 -16 25 -59 40 -95 42 -103 151 -325 217 -445 66 -119 212
-356 231 -378 7 -7 19 -24 27 -39 17 -29 44 -67 78 -108 12 -15 22 -31 22 -34
0 -3 9 -16 19 -28 11 -13 58 -72 106 -133 48 -60 97 -119 109 -131 11 -12 46
-50 76 -85 64 -75 294 -304 369 -369 57 -49 80 -69 132 -115 19 -17 86 -70
149 -118 63 -48 120 -91 126 -96 23 -19 263 -181 268 -181 3 0 25 -13 49 -30
25 -16 49 -30 55 -30 6 0 12 -4 14 -8 7 -17 505 -278 520 -272 3 1 69 -28 163
-70 30 -13 211 -79 280 -102 84 -28 217 -69 235 -73 8 -1 35 -8 60 -15 25 -7
52 -13 60 -15 8 -2 51 -12 95 -23 44 -11 127 -30 185 -41 104 -20 124 -23 210
-36 77 -11 93 -13 150 -20 30 -4 69 -8 85 -10 215 -26 850 -26 1005 0 14 2 52
6 86 9 33 3 67 8 75 10 8 3 37 7 64 10 28 3 61 8 75 10 14 3 41 7 60 10 19 3
58 10 85 15 28 6 62 13 77 15 15 3 31 7 35 9 5 3 24 8 43 11 19 3 71 15 115
26 44 12 88 23 98 25 125 27 514 165 711 252 87 39 400 195 406 203 3 4 20 13
38 21 17 8 32 17 32 21 0 5 4 8 10 8 5 0 44 21 85 47 42 27 84 53 94 58 72 42
177 114 207 143 8 7 14 10 14 7 0 -4 15 6 33 21 19 16 44 36 56 44 13 8 37 27
55 42 17 15 34 28 37 28 3 0 17 10 31 23 14 12 39 33 57 47 17 14 46 39 65 55
18 17 62 55 97 85 109 96 340 331 444 453 32 38 112 134 125 151 8 10 27 33
43 51 15 18 27 38 27 44 0 6 3 11 8 11 4 0 18 17 32 38 14 20 27 39 31 42 10
9 179 258 179 264 0 4 5 12 10 19 10 12 56 88 108 177 110 193 269 537 347
750 15 41 34 93 42 115 8 22 17 49 19 59 2 10 9 35 16 55 7 20 13 38 13 41 1
3 7 25 15 50 7 25 14 50 16 55 1 6 12 46 23 91 12 45 24 92 27 105 11 50 14
65 20 89 22 91 68 366 79 470 3 30 8 69 10 85 27 194 27 791 0 1010 -2 17 -6
57 -10 89 -3 32 -7 62 -9 65 -2 3 -7 35 -10 71 -4 36 -11 83 -16 104 -5 22 -7
43 -4 47 2 4 1 10 -4 13 -4 2 -9 19 -10 38 -2 18 -21 107 -43 198 -22 91 -42
174 -44 184 -3 10 -9 33 -15 51 -6 18 -12 41 -15 51 -5 26 -90 282 -106 319
-7 17 -13 32 -14 35 -1 3 -7 18 -13 33 -7 16 -12 34 -12 41 0 6 -4 16 -8 22
-5 5 -21 41 -37 79 -40 99 -190 410 -214 444 -11 16 -18 30 -15 33 2 3 -2 11
-11 18 -8 7 -15 16 -15 21 0 8 -115 200 -167 278 -13 20 -29 44 -36 55 -6 10
-18 24 -24 32 -7 7 -13 15 -13 19 0 5 -150 212 -181 249 -5 6 -17 21 -27 32
-42 52 -99 120 -117 140 -11 12 -47 53 -80 90 -76 86 -272 282 -354 354 -34
30 -75 66 -90 80 -27 25 -54 47 -166 137 -33 26 -61 51 -63 56 -2 4 -10 7 -17
7 -7 0 -15 3 -17 8 -5 11 -73 60 -208 149 -69 46 -129 87 -135 91 -52 42 -635
350 -635 336 0 -2 -21 6 -47 19 -27 13 -93 41 -148 61 -55 21 -109 42 -120 46
-40 18 -329 110 -345 110 -9 0 -20 3 -24 7 -3 4 -12 8 -19 9 -7 1 -68 15 -137
32 -133 33 -154 37 -238 52 -30 5 -61 11 -70 14 -15 4 -47 9 -139 21 -13 2
-42 6 -65 10 -67 10 -87 13 -173 20 -44 4 -93 9 -110 12 -36 5 -642 13 -647 8z
m2319 -3175 c143 -17 326 -56 454 -96 127 -40 219 -79 219 -91 0 -5 -18 -60
-41 -123 -23 -63 -50 -141 -61 -172 -11 -32 -23 -58 -28 -58 -4 0 -39 12 -76
26 -183 69 -314 103 -534 139 -19 3 -102 8 -185 11 -222 9 -391 -24 -521 -102
-162 -97 -235 -231 -235 -431 -1 -276 109 -428 414 -577 110 -53 170 -78 472
-192 177 -67 378 -165 490 -239 282 -188 409 -439 399 -786 -6 -175 -43 -317
-117 -449 -50 -87 -192 -237 -282 -295 -179 -117 -399 -188 -660 -214 -90 -9
-500 -7 -546 3 -13 3 -53 8 -89 11 -161 14 -344 56 -475 108 l-80 32 -1 203
c-1 111 -1 202 1 202 1 0 34 -12 71 -26 469 -177 1020 -223 1348 -113 198 66
319 178 378 348 19 56 23 86 22 191 0 182 -37 280 -140 383 -117 116 -282 200
-689 352 -488 182 -718 348 -845 610 -76 157 -101 284 -95 485 5 183 44 317
134 449 76 113 240 245 384 311 122 55 325 103 477 113 92 5 342 -2 437 -13z
m-3472 -54 c227 -32 420 -88 588 -173 468 -234 749 -659 821 -1238 25 -197 26
-501 2 -661 -3 -21 -8 -57 -12 -79 -83 -585 -408 -1026 -912 -1238 -163 -69
-375 -125 -537 -142 -33 -4 -71 -9 -85 -12 -14 -4 -310 -8 -657 -10 l-633 -5
0 1790 0 1789 653 -2 c544 -2 672 -5 772 -19z"/>
<path d="M2582 4998 l3 -1423 330 1 c514 2 723 35 972 154 397 189 619 535
671 1045 12 115 12 375 1 485 -63 594 -355 966 -864 1099 -185 49 -238 54
-688 58 l-427 5 2 -1424z"/>
</g>
</svg>
