<?xml version="1.0" encoding="utf-8"?>
<!-- Generator: Adobe Illustrator 19.0.0, SVG Export Plug-In . SVG Version: 6.00 Build 0)  -->
<!DOCTYPE svg PUBLIC "-//W3C//DTD SVG 1.1//EN" "http://www.w3.org/Graphics/SVG/1.1/DTD/svg11.dtd">
<svg version="1.1" xmlns="http://www.w3.org/2000/svg" xmlns:xlink="http://www.w3.org/1999/xlink" 
	 viewBox="75 675 50 50" x="0" y="0"  width="100" height="25" xml:space="preserve">
<g id="microsoft">
	<g>
		<g>
			<path fill="#737373" d="M68,698.7l-1.1,3.2h-0.1c-0.2-0.7-0.5-1.8-1.1-3.2l-6.1-15.3h-6v24.3h3.9v-15c0-0.9,0-2-0.1-3.3
				c0-0.6-0.1-1.2-0.1-1.6h0.1c0.2,0.9,0.4,1.6,0.6,2.1l7.3,17.7h2.8l7.3-17.9c0.2-0.4,0.3-1.2,0.5-1.9H76c-0.1,1.8-0.2,3.4-0.2,4.4
				v15.5H80v-24.3h-5.7L68,698.7z"/>
			<rect x="84" y="690.3" fill="#737373" width="4.1" height="17.4"/>
			<path fill="#737373" d="M86.1,682.9c-0.7,0-1.3,0.2-1.7,0.7c-0.5,0.5-0.7,1-0.7,1.7c0,0.7,0.2,1.2,0.7,1.7
				c0.5,0.4,1.1,0.7,1.8,0.7c0.7,0,1.3-0.2,1.8-0.7c0.5-0.4,0.7-1,0.7-1.7c0-0.7-0.2-1.2-0.7-1.7C87.4,683.1,86.8,682.9,86.1,682.9z
				"/>
			<path fill="#737373" d="M102.6,690.1c-0.8-0.2-1.6-0.2-2.3-0.2c-1.9,0-3.6,0.4-5,1.2c-1.4,0.8-2.5,1.9-3.3,3.4
				c-0.8,1.4-1.1,3.1-1.1,5c0,1.6,0.4,3.2,1.1,4.5c0.7,1.3,1.8,2.4,3.1,3.1c1.3,0.7,2.8,1.1,4.5,1.1c1.9,0,3.6-0.4,4.9-1.2l0.1,0
				v-3.8l-0.2,0.1c-0.6,0.4-1.3,0.8-2,1c-0.7,0.3-1.4,0.4-2,0.4c-1.6,0-2.9-0.5-3.8-1.5c-0.9-1-1.4-2.4-1.4-4.1
				c0-1.8,0.5-3.2,1.5-4.3c1-1.1,2.3-1.6,3.8-1.6c1.3,0,2.7,0.5,3.9,1.4l0.2,0.1v-4l-0.1,0C104,690.5,103.4,690.3,102.6,690.1z"/>
			<path fill="#737373" d="M116.1,690c-1,0-2,0.3-2.7,1c-0.7,0.6-1.2,1.4-1.6,2.3h0v-3h-4.1v17.4h4.1v-8.9c0-1.5,0.3-2.8,1-3.7
				c0.7-0.9,1.6-1.4,2.7-1.4c0.4,0,0.8,0.1,1.2,0.2c0.4,0.1,0.8,0.2,1,0.4l0.2,0.1v-4.1l-0.1,0C117.3,690.1,116.8,690,116.1,690z"/>
			<path fill="#737373" d="M127.2,689.9c-2.9,0-5.2,0.8-6.8,2.5c-1.6,1.7-2.5,4-2.5,6.8c0,2.7,0.8,4.9,2.4,6.5
				c1.6,1.6,3.7,2.4,6.4,2.4c2.8,0,5-0.9,6.7-2.5c1.6-1.7,2.5-4,2.5-6.8c0-2.8-0.8-5-2.3-6.6C132.1,690.7,129.9,689.9,127.2,689.9z
				 M130.5,703.3c-0.8,1-1.9,1.5-3.4,1.5c-1.5,0-2.7-0.5-3.5-1.5c-0.8-1-1.3-2.4-1.3-4.2c0-1.8,0.4-3.3,1.3-4.3c0.8-1,2-1.5,3.5-1.5
				c1.4,0,2.6,0.5,3.4,1.4c0.8,1,1.2,2.4,1.2,4.3C131.7,700.9,131.3,702.3,130.5,703.3z"/>
			<path fill="#737373" d="M145,697.5c-1.3-0.5-2.1-0.9-2.5-1.3c-0.3-0.3-0.5-0.8-0.5-1.3c0-0.5,0.2-0.9,0.6-1.2
				c0.4-0.3,1-0.5,1.8-0.5c0.7,0,1.4,0.1,2.1,0.3c0.7,0.2,1.3,0.5,1.8,0.9l0.2,0.1v-3.8l-0.1,0c-0.5-0.2-1.1-0.4-1.9-0.5
				c-0.8-0.1-1.4-0.2-2-0.2c-2,0-3.6,0.5-4.8,1.5c-1.2,1-1.9,2.3-1.9,3.9c0,0.8,0.1,1.5,0.4,2.2c0.3,0.6,0.7,1.2,1.2,1.6
				c0.5,0.5,1.4,0.9,2.5,1.4c0.9,0.4,1.6,0.7,2.1,1c0.4,0.3,0.7,0.5,0.9,0.8c0.2,0.2,0.3,0.6,0.3,1c0,1.2-0.9,1.7-2.7,1.7
				c-0.7,0-1.4-0.1-2.3-0.4c-0.8-0.3-1.6-0.7-2.3-1.2l-0.2-0.1v4l0.1,0c0.6,0.3,1.3,0.5,2.2,0.7c0.9,0.2,1.7,0.3,2.4,0.3
				c2.1,0,3.8-0.5,5.1-1.5c1.3-1,1.9-2.3,1.9-4c0-1.2-0.3-2.2-1-3C147.8,698.9,146.6,698.2,145,697.5z"/>
			<path fill="#737373" d="M160.5,689.9c-2.9,0-5.2,0.8-6.8,2.5c-1.6,1.7-2.5,4-2.5,6.8c0,2.7,0.8,4.9,2.4,6.5
				c1.6,1.6,3.7,2.4,6.4,2.4c2.8,0,5-0.9,6.7-2.5c1.6-1.7,2.5-4,2.5-6.8c0-2.8-0.8-5-2.3-6.6C165.4,690.7,163.2,689.9,160.5,689.9z
				 M163.8,703.3c-0.8,1-1.9,1.5-3.4,1.5c-1.5,0-2.7-0.5-3.5-1.5c-0.8-1-1.3-2.4-1.3-4.2c0-1.8,0.4-3.3,1.3-4.3c0.8-1,2-1.5,3.5-1.5
				c1.4,0,2.6,0.5,3.4,1.4c0.8,1,1.2,2.4,1.2,4.3C164.9,700.9,164.6,702.3,163.8,703.3z"/>
			<path fill="#737373" d="M191.1,693.6v-3.3h-4.2v-5.2l-0.1,0l-3.9,1.2l-0.1,0v3.9h-6.2v-2.2c0-1,0.2-1.8,0.7-2.3
				c0.4-0.5,1.1-0.8,1.9-0.8c0.6,0,1.2,0.1,1.8,0.4l0.2,0.1V682l-0.1,0c-0.6-0.2-1.3-0.3-2.3-0.3c-1.2,0-2.3,0.3-3.3,0.8
				c-1,0.5-1.7,1.3-2.2,2.2c-0.5,0.9-0.8,2-0.8,3.3v2.4h-2.9v3.3h2.9v14.1h4.2v-14.1h6.2v9c0,3.7,1.7,5.6,5.2,5.6
				c0.6,0,1.2-0.1,1.8-0.2c0.6-0.1,1-0.3,1.3-0.4l0.1,0v-3.4l-0.2,0.1c-0.2,0.2-0.5,0.3-0.8,0.4c-0.3,0.1-0.6,0.1-0.8,0.1
				c-0.8,0-1.4-0.2-1.8-0.6c-0.4-0.4-0.6-1.2-0.6-2.2v-8.2H191.1z"/>
		</g>
		<rect x="0.9" y="675.3" fill="#F25022" width="19.3" height="19.3"/>
		<rect x="22.2" y="675.3" fill="#7FBA00" width="19.3" height="19.3"/>
		<rect x="0.9" y="696.6" fill="#00A4EF" width="19.3" height="19.3"/>
		<rect x="22.2" y="696.6" fill="#FFB900" width="19.3" height="19.3"/>
	</g>
</g>
</svg>
